<?xml version="1.0" standalone="no"?>
<!DOCTYPE svg PUBLIC "-//W3C//DTD SVG 20010904//EN"
 "http://www.w3.org/TR/2001/REC-SVG-20010904/DTD/svg10.dtd">
<svg version="1.0" xmlns="http://www.w3.org/2000/svg"
 width="108.000000pt" height="108.000000pt" viewBox="0 0 108.000000 108.000000"
 preserveAspectRatio="xMidYMid meet">
<metadata>
Created by potrace 1.11, written by Peter Selinger 2001-2013
</metadata>
<g transform="translate(0.000000,108.000000) scale(0.100000,-0.100000)"
fill="#000000" stroke="none">
<path d="M281 998 c-37 -18 -84 -91 -241 -371 -51 -91 -45 -114 87 -342 78
-133 120 -197 143 -212 32 -22 41 -23 269 -23 211 0 240 2 271 19 28 15 56 55
153 222 149 256 148 228 12 464 -54 94 -109 185 -123 204 -41 55 -62 59 -309
58 -198 0 -228 -2 -262 -19z m509 -64 c24 -24 230 -383 230 -400 0 -22 -222
-403 -239 -410 -26 -12 -433 -14 -463 -2 -21 8 -52 52 -134 195 -59 102 -109
196 -112 208 -3 16 31 83 107 216 62 106 114 195 116 197 12 13 87 17 271 16
188 -1 207 -2 224 -20z"/>
<path d="M322 847 c-5 -7 -42 -68 -82 -137 l-72 -125 23 -43 c13 -24 49 -85
79 -135 54 -91 55 -92 98 -95 41 -3 42 -2 42 26 0 24 -6 32 -30 41 -16 5 -30
14 -30 19 0 5 -22 47 -50 93 -27 46 -50 88 -50 92 0 4 26 52 57 107 l57 100
122 0 c101 0 124 3 135 17 17 20 17 16 0 37 -12 14 -34 16 -152 15 -92 0 -141
-5 -147 -12z"/>
<path d="M437 748 c-8 -22 -7 -512 2 -526 6 -9 46 -12 166 -10 l158 3 37 60
c20 33 56 94 78 136 l42 75 -70 123 c-38 68 -75 130 -81 137 -16 19 -324 20
-332 2z m288 -60 c6 -7 95 -160 95 -164 0 -2 -72 -4 -160 -4 l-160 0 0 84 0
85 38 3 c43 4 183 1 187 -4z m59 -305 c-20 -38 -42 -76 -48 -85 -9 -15 -27
-18 -123 -18 -92 0 -113 3 -113 15 0 10 16 15 62 17 56 3 62 5 63 26 2 32 -14
41 -73 39 l-52 -3 0 38 0 38 161 0 161 0 -38 -67z"/>
</g>
</svg>
