<svg id="Capa_1" data-name="Capa 1" xmlns="http://www.w3.org/2000/svg" viewBox="0 0 607.31 689.52"><defs><style>.cls-1{fill:#fff;}</style></defs><title>Mesa de trabajo 3 copia</title><path class="cls-1" d="M1.56,1.36l488.81,105L605.9,183.08,251.22,687.37ZM250.5,664.83l32.95-337L13.06,18.78Zm37.6-336.24-32.73,334.8L588.48,189.75ZM286,323.52,482.81,115.43,17.19,16.35Zm10-3.77L589,184.34,487.69,117.1Z"/><path class="cls-1" d="M2.34,2,490.17,106.86l115,76.35L251.36,686.3,2.34,2M286,324.26l.75-.8,195.86-207,1.22-1.3-1.74-.37L18.76,16.17l-2.94-.62,2,2.26L285.22,323.44l.73.82m-35.16,342.8.42-4.35,32.72-334.65,0-.43-.28-.32L15.22,20.48l-3.56-4.06,1.86,5.06L249.28,663l1.51,4.11m43.06-345.77,4.72-2.18L588.38,185.17l1.62-.75-1.49-1L488.32,116.92l-.7-.46-.58.61L297.42,317.52l-3.57,3.77M254.69,665.23l2.18-3.11,331-470.56,2.14-3-3.38,1.56L288.15,328l-.52.24-.05.57L255.05,661.45l-.36,3.78M.78.68,251.07,688.44,606.6,183l-116-77L.78.68ZM286,322.78,18.55,17.15l463.28,98.58L286,322.78ZM250.22,662.61,14.46,21.14,282.94,328,250.22,662.61Zm47.93-344.4L487.77,117.75,588,184.26l-289.81,134Zm-42.1,343.34,32.52-332.63L587,191,256.05,661.55Z"/></svg>