<svg id="Capa_1" data-name="Capa 1" xmlns="http://www.w3.org/2000/svg" viewBox="0 0 1080 1080"><defs><style>.cls-1{fill:#aaa;}</style></defs><title>tron</title><path class="cls-1" d="M488.75,885.18l-251-689.63c8.12,1.67,15.55,3.14,23,4.73Q393,228.68,525.23,257.1q100.11,21.51,200.19,43.07a16.37,16.37,0,0,1,5.48,2.25q56.22,37.2,112.35,74.53c.54.36,1,.84,1.85,1.55Zm35.07-367.79L718.53,311.55l-459-97.65-.43,1ZM487.25,854.27c.46-.84.69-1.08.71-1.33q5-49.91,9.9-99.81c3.47-35.77,6.78-71.55,10.28-107.31,3.82-39.07,7.84-78.12,11.54-117.2a11.71,11.71,0,0,0-2.42-8q-47.43-54.7-95.2-109.12-75.27-86.07-150.57-172.12c-5.26-6-10.56-12-15.85-18l-.76.51Q371,537.91,487.25,854.27Zm7.65-1.45,1,.37q163-231.78,326.87-464.74c-2.55,1-3.76,1.37-4.91,1.9q-143.45,66.3-286.91,132.56c-2.69,1.24-4.1,2.67-4.37,5.78-1.17,13.59-2.6,27.16-3.94,40.74q-3.3,33.51-6.6,67c-2.13,21.86-4.2,43.72-6.34,65.58q-3.32,34-6.69,68-2.78,28.06-5.57,56.12C496.53,835.08,495.73,844,494.9,852.82ZM725.68,314,540.11,510.19l.48.73,284-131.26Z"/></svg>