<?xml version="1.0" standalone="no"?>
<!DOCTYPE svg PUBLIC "-//W3C//DTD SVG 20010904//EN"
 "http://www.w3.org/TR/2001/REC-SVG-20010904/DTD/svg10.dtd">
<svg version="1.0" xmlns="http://www.w3.org/2000/svg"
 width="140.000000pt" height="140.000000pt" viewBox="0 0 140.000000 140.000000"
 preserveAspectRatio="xMidYMid meet">
<metadata>
Created by potrace 1.11, written by Peter Selinger 2001-2013
</metadata>
<g transform="translate(0.000000,140.000000) scale(0.100000,-0.100000)"
fill="#000000" stroke="none">
<path d="M349 1303 c-31 -19 -15 7 -196 -306 -131 -224 -147 -257 -147 -297 0
-40 18 -76 148 -300 82 -140 161 -268 177 -285 l29 -30 330 -1 c322 -2 331 -1
361 20 17 11 43 42 58 69 14 26 83 146 153 267 70 122 129 233 131 249 5 30
-5 56 -55 143 -18 31 -85 146 -148 256 -95 165 -121 203 -148 216 -49 24 -654
23 -693 -1z m449 -206 c13 -9 12 -43 -1 -64 -6 -10 -51 -13 -165 -13 l-157 0
-76 -132 -76 -132 26 -46 c117 -206 126 -220 148 -220 33 0 50 -37 33 -70 -6
-12 -21 -16 -54 -15 -26 1 -48 4 -50 6 -7 7 -187 319 -192 334 -8 19 185 353
205 357 35 7 347 2 359 -5z m194 -134 c13 -16 96 -156 164 -279 13 -24 24 -49
24 -56 0 -15 -172 -315 -193 -335 -11 -11 -56 -15 -207 -15 -168 -1 -194 1
-205 15 -14 20 -18 642 -3 670 8 15 28 17 207 17 176 0 200 -2 213 -17z"/>
<path d="M650 783 l0 -112 205 1 c113 0 205 2 205 5 0 7 -111 197 -121 208 -6
6 -70 10 -149 10 l-140 0 0 -112z"/>
<path d="M650 540 l0 -49 78 -3 77 -3 1 -30 c2 -45 -9 -52 -78 -50 -65 2 -90
-7 -82 -28 3 -9 45 -12 146 -12 l141 0 37 60 c43 70 90 154 90 160 0 2 -92 4
-205 4 l-205 0 0 -49z"/>
</g>
</svg>
